<svg height="512" viewBox="0 0 58 58" width="512" xmlns="http://www.w3.org/2000/svg"><g id="003---Jacket" fill="none" transform="translate(-1)"><path id="Shape" d="m45 53v4c0 .5522847-.4477153 1-1 1h-28c-.5522847 0-1-.4477153-1-1v-4z" fill="#5d4c72"/><path id="Shape" d="m13.44 11.49c-.93 31.13.56-17.65-.92 30.51-.553662 2.1363042-2.73289868 3.4205771-4.87 2.87l-3.65-.94c-1.05152386-.2682595-1.94892304-.9522485-2.48631888-1.8950482-.53739584-.9427998-.66866104-2.0634851-.36368112-3.1049518 4.13-14.26 4.85-16.82 6.67-23.11.72797191-2.514914 3.0025929-4.2674245 5.62-4.33z" fill="#894b9d"/><path id="Shape" d="m9.86 44.8-.86 3.5c-.06962185.2628842-.24330592.4860757-.48103059.6181449-.23772467.1320693-.51898448.1616244-.77896941.0818551l-5.81-1.47c-.25750666-.0659011-.47818129-.2316107-.61327795-.4605245s-.17349825-.5021944-.10672205-.7594755l.9-3.49z" fill="#5d4c72"/><path id="Shape" d="m56 43.93-3.64.94c-1.0277526.267432-2.1196678.1151887-3.0350704-.423173-.9154025-.5383618-1.5791456-1.418647-1.8449296-2.446827-.67-22.15-.36-11.9-.92-30.51 2.6174071.0625755 4.8920281 1.815086 5.62 4.33l6.66 23.18c.2836165 1.030579.142959 2.1318014-.3905941 3.0580046-.5335532.9262032-1.4156122 1.6003301-2.4494059 1.8719954z" fill="#894b9d"/><path id="Shape" d="m57.89 42.82.9 3.49c.0667762.2572811.0283746.5305617-.1067221.7594755-.1350966.2289138-.3557712.3946234-.6132779.4605245l-5.81 1.47c-.2599849.0797693-.5412447.0502142-.7789694-.0818551-.2377247-.1320692-.4114088-.3552607-.4810306-.6181449l-.9-3.5z" fill="#5d4c72"/><g fill="#f29c1f"><path id="Shape" d="m12.21 26.46c-.22 0 .34.15-6.87-2l.55-1.92c7 2.11 6.85 1.95 7.14 2.38.1954783.3044957.2112167.6908378.0411536 1.0102247-.1700631.3193868-.4993957.5219898-.8611536.5297753z"/><path id="Shape" d="m12.44 35.83-9.54-2.94 1.14-3.95 8.3 2.55z"/><path id="Shape" d="m47.56 35.83 9.54-2.94-1.14-3.95-8.3 2.55z"/><path id="Shape" d="m54.66 24.44c-7.17 2.16-6.65 2-6.87 2-.3572656.0518035-.7150295-.090927-.9385254-.3744263-.223496-.2834993-.2787696-.6646972-.145-1s.4362598-.5737702.7935254-.6255737c6.67-2 6.51-2 6.61-2z"/></g><path id="Shape" d="m48 15.61c-.1 4.33-.46 22.33-.77 35.46-.0380309 1.6294544-1.3701019 2.9304438-3 2.93h-28.46c-1.6298981.0004438-2.9619691-1.3005456-3-2.93-.25-10.84-.77-35.36-.77-35.46-.031576-1.5018959.4797205-2.9647721 1.44-4.12 1.56-1.9 3.3-2.17 5.67-2.86h21.78l2.4.7c2.8056354.7930008 4.7342971 3.3645498 4.71 6.28z" fill="#955ba5"/><path id="Shape" d="m47.75 27v2h-35.46c0-1.23 0-.77 0-2z" fill="#f0c419"/><path id="Shape" d="m31 22v36h-2v-36c0-.5522847.4477153-1 1-1s1 .4477153 1 1z" fill="#bdc3c7"/><path id="Shape" d="m30 17-2.09 3.49c-.1832455.3090648-.1865957.6926808-.0087761 1.004899.1778196.3122181.5094712.5050383.8687761.505101h2.47c.3575155-.0036268.6858945-.1978507.8612775-.5094133.1753829-.3115627.1710832-.6930561-.0112775-1.0005867z" fill="#ecf0f1"/><path id="Shape" d="m31 3s-10 0-10 4 5 11 11 9 8-8 7-10-4-3-4-3z" fill="#3d324c"/><path id="Shape" d="m39 2c-.0849216 1.53623892-.5413096 3.02893638-1.33 4.35-4.9548717-1.80029686-10.3851283-1.80029686-15.34 0-.7886904-1.32106362-1.2450784-2.81376108-1.33-4.35 0-1.1 4-2 9-2s9 .9 9 2z" fill="#894b9d"/><path id="Shape" d="m30 17c-9-1-11-8-11-8l2-7c.0849216 1.53623892.5413096 3.02893638 1.33 4.35.895145 1.50732077 2.1578103 2.76310499 3.67 3.65 2.4975603 1.4418131 4.0258147 4.1162583 4 7z" fill="#b49aca"/><path id="Shape" d="m41 9s-2 7-11.0000862 8c-.0132055-2.8804615 1.5117098-5.5490632 4.0000862-7 1.5121897-.88689501 2.774855-2.14267923 3.67-3.65.7886904-1.32106362 1.2450784-2.81376108 1.33-4.35z" fill="#b49aca"/></g></svg>