<svg height="512" viewBox="0 0 36 58" width="512" xmlns="http://www.w3.org/2000/svg"><g id="023---Jeans" fill="none"><path id="Shape" d="m35 5v52c0 .5522847-.4477153 1-1 1h-12c-.5522847 0-1-.4477153-1-1v-32.83c-.0035157-.7984013-.2946326-1.5687961-.82-2.17-.836417-.8852454-2.1250186-1.1769792-3.2611634-.7383132-1.1361448.4386659-1.8943454 1.5206708-1.9188366 2.7383132v33c0 .5522847-.4477153 1-1 1h-12c-.55228475 0-1-.4477153-1-1v-52z" fill="#3b97d3"/><g fill="#2980ba"><path id="Rectangle-path" d="m1 5h34v4h-34z"/><path id="Shape" d="m5 33c0 .5522847-.44771525 1-1 1h-3v-2h3c.55228475 0 1 .4477153 1 1z"/><path id="Shape" d="m4 37c0 .5522847-.44771525 1-1 1h-2v-2h2c.55228475 0 1 .4477153 1 1z"/><path id="Shape" d="m35 32v2h-3c-.5522847 0-1-.4477153-1-1s.4477153-1 1-1z"/><path id="Shape" d="m35 36v2h-2c-.5522847 0-1-.4477153-1-1s.4477153-1 1-1z"/><path id="Shape" d="m21 17h-1c-1.6568542 0-3-1.3431458-3-3v-7c0-.55228475.4477153-1 1-1s1 .44771525 1 1v7c0 .5522847.4477153 1 1 1h1c.5522847 0 1 .4477153 1 1s-.4477153 1-1 1z"/><path id="Shape" d="m15 34v2h-2c-.5522847 0-1-.4477153-1-1s.4477153-1 1-1z"/><path id="Shape" d="m24 35c0 .5522847-.4477153 1-1 1h-2v-2h2c.5522847 0 1 .4477153 1 1z"/><path id="Shape" d="m9 41h-2c-.55228475 0-1-.4477153-1-1s.44771525-1 1-1h2c.55228475 0 1 .4477153 1 1s-.44771525 1-1 1z"/><path id="Shape" d="m29 41h-2c-.5522847 0-1-.4477153-1-1s.4477153-1 1-1h2c.5522847 0 1 .4477153 1 1s-.4477153 1-1 1z"/><path id="Shape" d="m7 12v1c0 3.3137085-2.6862915 6-6 6v-2c2.209139 0 4-1.790861 4-4v-1c0-.5522847.44771525-1 1-1s1 .4477153 1 1z"/><path id="Shape" d="m35 17v2c-3.3137085 0-6-2.6862915-6-6v-1c0-.5522847.4477153-1 1-1s1 .4477153 1 1v1c0 2.209139 1.790861 4 4 4z"/><path id="Shape" d="m23 22h-10c-.5522847 0-1-.4477153-1-1s.4477153-1 1-1h10c.5522847 0 1 .4477153 1 1s-.4477153 1-1 1z"/></g><rect id="Rectangle-path" fill="#35495e" height="6" rx="1" width="36" y="1"/><path id="Shape" d="m6 10v-8.75c-.0589583-.61835771.38378212-1.17178324 1-1.25h2c.61621788.07821676 1.0589583.63164229 1 1.25v8.75z" fill="#3b97d3"/><path id="Shape" d="m26 10v-8.75c-.0589583-.61835771.3837821-1.17178324 1-1.25h2c.6162179.07821676 1.0589583.63164229 1 1.25v8.75z" fill="#3b97d3"/><rect id="Rectangle-path" fill="#f0c419" height="6" rx="2" width="6" x="15" y="1"/></g></svg>