<svg height="512" viewBox="0 0 58 58" width="512" xmlns="http://www.w3.org/2000/svg"><g id="014---Polo-Shirt" fill="none"><path id="Shape" d="m9 7s-5 5-9 18c4.2256508 2.4715591 9.2513387 3.1895145 14 2z" fill="#24ae5f"/><path id="Shape" d="m49 7s5 5 9 18c-4.2256508 2.4715591-9.2513387 3.1895145-14 2z" fill="#24ae5f"/><path id="Shape" d="m58 25c-4.2256508 2.4715591-9.2513387 3.1895145-14 2l.91-3.64c4.0659103.5840714 8.2111632-.1817465 11.8-2.18.44 1.19.87 2.46 1.29 3.82z" fill="#4c8056"/><path id="Shape" d="m14 27c-4.7486613 1.1895145-9.7743492.4715591-14-2 .42-1.36.85-2.63 1.29-3.82 3.59234771 1.9884759 7.73430395 2.7536848 11.8 2.18z" fill="#4c8056"/><path id="Shape" d="m40.4 3.6c2.9502783.90922919 5.8255719 2.04597318 8.6 3.4-1 6-5 20-5 20l1 28c-4 2-8 3-16 3s-12-1-16-3l1-28s-4-14-5-20c2.7744281-1.35402682 5.6497217-2.49077081 8.6-3.4z" fill="#4fba6f"/><path id="Shape" d="m29 22c-.5522847 0-1-.4477153-1-1v-11c0-.55228475.4477153-1 1-1s1 .44771525 1 1v11c0 .5522847-.4477153 1-1 1z" fill="#24ae5f"/><path id="Shape" d="m45 55c-4 2-8 3-16 3s-12-1-16-3l.14-3.93c3.95 1.93 7.95 2.93 15.86 2.93s11.91-1 15.86-2.93z" fill="#7ed09e"/><path id="Shape" d="m35.3 5.58c-1.88 2.95-6.3 4.42-6.3 4.42s-4.42-1.47-6.3-4.42c4.1647034-.77005393 8.4352966-.77005393 12.6 0z" fill="#4c8056"/><path id="Shape" d="m42 6s-2 7-9 9c0 0 0-3-4-5 0 0 4.42-1.47 6.3-4.42-4.1604198-.7800407-8.4295802-.7800407-12.59 0-.21 0 2.14 3 6.29 4.42-4 2-4 5-4 5-7-2-9-9-9-9l3.41-5.11c.370262-.55496203.9928604-.8887648 1.66-.89h15.86c.6671396.0012352 1.289738.33503797 1.66.89z" fill="#7ed09e"/><g fill="#4fba6f"><path id="Shape" d="m24.63 5.27c-.75.1-1.39.2-1.92.31-.3265933-.53910579-.5661983-1.12630682-.71-1.74-.1017414-.352104-.0027126-.73165424.2580846-.98916804s.6415716-.35172602.9923583-.24553197c.3507868.10619406.6153744.39577738.6895571.75470001.26 1.15.78 1.29.69 1.91z"/><path id="Shape" d="m36 3.84c-.1513532.61606641-.401239 1.20363574-.74 1.74-.53-.11-1.17-.22-1.92-.31-.06-.64.43-.75.72-1.91.1329088-.53545036.6743509-.86210549 1.21-.73.5354504.13290882.8621055.67435087.73 1.21z"/></g></g></svg>