<svg height="512" viewBox="0 0 58 50" width="512" xmlns="http://www.w3.org/2000/svg"><g id="097---Shorts" fill="none" fill-rule="evenodd" transform="translate(-1)"><path id="Shape" d="m9 7v-4.66c-.08638566-1.19600454.80513391-2.23908243 2-2.34h38c1.190697.10094755 2.0806622 1.13775704 2 2.33v4.67z" fill="#35495e" fill-rule="nonzero"/><path id="Shape" d="m30.25 6h-.5" stroke="#000" stroke-linecap="round" stroke-linejoin="round" stroke-width="2"/><g fill-rule="nonzero"><path id="Shape" d="m58 45.83c-5.33 3-13.44 4.05-19.68 4.17-.8013963.0067874-1.5294587-.4654693-1.85-1.2l-5.55-12.69c-.1570883-.3687533-.5191812-.6080816-.92-.6080816s-.7629117.2393283-.92.6080816l-5.55 12.69c-.3205413.7345307-1.0486037 1.2067874-1.85 1.2-6.18-.11-14.29-1.13-19.68-4.17-.76803552-.4204954-1.1732465-1.291699-1-2.15.24-1.13 1.06-5 8-37.67h42c6.92 32.7 7.74 36.54 8 37.67.1732465.858301-.2319645 1.7295046-1 2.15z" fill="#2980ba"/><path id="Shape" d="m58.82 43c-.1765609.3705248-.4628448.6777563-.82.88-5.39 3-13.47 4.05-19.68 4.17-.8013963.0067874-1.5294587-.4654693-1.85-1.2l-5.55-12.74c-.1570883-.3687533-.5191812-.6080816-.92-.6080816s-.7629117.2393283-.92.6080816l-5.55 12.69c-.3205413.7345307-1.0486037 1.2067874-1.85 1.2-6.23-.12-14.35-1.17-19.68-4.17-.34975184-.1890176-.63523558-.4779828-.82-.83l7.82-37h42z" fill="#3b97d3"/><path id="Shape" d="m15.59 6c0 .19-8.5 41.78-8.55 41.9-.69-.21-1.32-.43-1.89-.65l8.42-41.25z" fill="#ecf0f1"/><path id="Shape" d="m54.85 47.26c-.57.22-1.2.44-1.89.65-.05-.12-8.55-41.71-8.55-41.9h2z" fill="#ecf0f1"/><path id="Shape" d="m37.47 4c-2.72-1.7-6.34-.77-7.47-.42-1.13-.35-4.75-1.28-7.47.42-5 3.11-5.62 9.11 0 9.11 1.7670707-.0428988 3.484853-.591201 4.95-1.58-.9492366 1.8678046-2.3183804 3.4902401-4 4.74-.2203997.1483028-.3727332.3782067-.4233875.6389823-.0506542.2607756.0045341.5309895.1533875.7510177.3051825.456275.9211173.5812473 1.38.28 2.4646706-1.8317761 4.344156-4.3400727 5.41-7.22 1.0767376 2.8849871 2.9705466 5.3938496 5.45 7.22.4607382.2926417 1.0710241.1617756 1.371266-.2940463.300242-.4558219.1795143-1.0681941-.271266-1.3759537-1.6686468-1.2553418-3.0353495-2.868051-4-4.72 1.459964.9737906 3.1656614 1.5146215 4.92 1.56 5.62 0 4.96-6.01 0-9.11zm-11.23 5.94c-2.46 1.54-5 1.38-5.57.53-.2289336-.6708378-.1328434-1.40999321.26-2 .6264201-1.14471563 1.5440206-2.10371166 2.66-2.78 1.48-.93 3.59-.79 5.29-.35-.29 1.39-1.05 3.6-2.64 4.6zm13.09.53c-.54.85-3.11 1-5.57-.53-1.69-1.06-2.38-3.38-2.63-4.6 1.36-.35 3.69-.63 5.28.36 1.1159794.67628834 2.0335799 1.63528437 2.66 2.78.3896461.58747002.4856334 1.32214171.26 1.99z" fill="#ecf0f1"/></g></g></svg>