<svg height="512" viewBox="0 0 49 59" width="512" xmlns="http://www.w3.org/2000/svg"><g id="091---Socks" fill="none" fill-rule="evenodd" transform="translate(0 -1)"><path id="Shape" d="m17.16 54.93c1.2748656 2.12455 3.4255038 3.5750891 5.8729462 3.961121s4.9401453-.332119 6.8070538-1.961121c4.5757903-4.1487776 9.3692425-8.0509682 14.36-11.69 3.0066682-2.0894083 4.7997217-5.5186231 4.8-9.18 0-2.16.1-.49-9.5-34.32-.0602802-.27257812-.2317558-.50755-.4729607-.64809454-.2412048-.14054453-.5301778-.1738656-.7970393-.09190546l-12.84 3.8 1.61 40.2z" fill="#d1d4d1" fill-rule="nonzero"/><path id="Shape" d="m22.89 9.75v-.01" stroke="#000" stroke-linecap="round" stroke-linejoin="round" stroke-width="2"/><g fill-rule="nonzero"><path id="Shape" d="m28.84 16.68 13.85-3.94-1.16-4.03-13.86 3.94z" fill="#c03a2b"/><path id="Shape" d="m30 56.76-.18.15c-1.8612011 1.6429897-4.3582456 2.370182-6.8105648 1.9833809-2.4523192-.3868012-4.6043053-1.8472791-5.8694352-3.9833809l6.86-6.91c2.3524994 2.6440364 4.3678909 5.5697131 6 8.71z" fill="#c03a2b"/><path id="Shape" d="m49 36.06c-.0002783 3.6613769-1.7933318 7.0905917-4.8 9.18-.69.48-1.38 1-2.06 1.48-1.376611-1.7180106-2.2706083-3.771788-2.59-5.95-.56-5.35 3.38-9.44 7.91-11.59.93 3.21 1.54 4.72 1.54 6.88z" fill="#c03a2b"/><path id="Shape" d="m23.23 1-15.43 4.56c-.25604173.07011239-.47369791.23915554-.60500257.46987659-.13130466.23072104-.16548101.50418361-.09499743.76012341l7 26.22c.1081156.3539138.0119438.7386011-.25 1l-10.58 10.99c-2.90417089 3.042498-3.05072488 7.7839506-.34 11 1.4453527 1.7225305 3.52502179 2.7884469 5.76735943 2.9560103 2.24233767.1675635 4.45733047-.5774253 6.14264057-2.0660103l7.27-6.2c2.28-1.9333333 4.6433333-3.7566667 7.09-5.47 3.919993-2.7198588 5.6796656-7.6292652 4.38-12.22l-9.08-31.26c-.0602802-.27257812-.2317558-.50755-.4729607-.64809454-.2412048-.14054453-.5301778-.1738656-.7970393-.09190546z" fill="#ecf0f1"/><path id="Shape" d="m27.69 12.74-17.65 5.02-1.08-4.05 17.57-5z" fill="#e64c3c"/><path id="Shape" d="m34 36.06c-.0002783 3.6613769-1.7933318 7.0905917-4.8 9.18-.69.48-1.38 1-2.06 1.48-1.376611-1.7180106-2.2706083-3.771788-2.59-5.95-.56-5.35 3.38-9.44 7.91-11.59.93 3.21 1.54 4.72 1.54 6.88z" fill="#e64c3c"/><path id="Shape" d="m15 56.76-.18.15c-3.3155903 3.0064578-8.41782286 2.842613-11.53369207-.3703742-3.11586922-3.2129872-3.12308346-8.3178447-.01630793-11.5396258l.44-.46c4.91054596 2.8403394 8.8464281 7.100435 11.29 12.22z" fill="#e64c3c"/></g></g></svg>